<?xml version="1.0" encoding="UTF-8" standalone="no"?>
<!-- Created with Inkscape (http://www.inkscape.org/) -->

<svg
   xmlns:dc="http://purl.org/dc/elements/1.1/"
   xmlns:cc="http://creativecommons.org/ns#"
   xmlns:rdf="http://www.w3.org/1999/02/22-rdf-syntax-ns#"
   xmlns:svg="http://www.w3.org/2000/svg"
   xmlns="http://www.w3.org/2000/svg"
   xmlns:xlink="http://www.w3.org/1999/xlink"
   xmlns:sodipodi="http://sodipodi.sourceforge.net/DTD/sodipodi-0.dtd"
   xmlns:inkscape="http://www.inkscape.org/namespaces/inkscape"
   width="210mm"
   height="297mm"
   viewBox="0 0 210 297"
   version="1.1"
   id="svg8"
   sodipodi:docname="Logo.svg"
   inkscape:version="0.92.3 (2405546, 2018-03-11)">
  <defs
     id="defs2">
    <linearGradient
       inkscape:collect="always"
       id="linearGradient356">
      <stop
         style="stop-color:#220055;stop-opacity:1"
         offset="0"
         id="stop352" />
      <stop
         style="stop-color:#220055;stop-opacity:1"
         offset="1"
         id="stop354" />
    </linearGradient>
    <linearGradient
       inkscape:collect="always"
       id="linearGradient348">
      <stop
         style="stop-color:#000000;stop-opacity:1;"
         offset="0"
         id="stop344" />
      <stop
         style="stop-color:#4400aa;stop-opacity:1"
         offset="1"
         id="stop346" />
    </linearGradient>
    <linearGradient
       inkscape:collect="always"
       id="linearGradient340">
      <stop
         style="stop-color:#000000;stop-opacity:1;"
         offset="0"
         id="stop336" />
      <stop
         style="stop-color:#4400aa;stop-opacity:1"
         offset="1"
         id="stop338" />
    </linearGradient>
    <linearGradient
       inkscape:collect="always"
       id="linearGradient334">
      <stop
         style="stop-color:#000000;stop-opacity:1;"
         offset="0"
         id="stop330" />
      <stop
         style="stop-color:#5500d4;stop-opacity:1"
         offset="1"
         id="stop332" />
    </linearGradient>
    <linearGradient
       inkscape:collect="always"
       id="linearGradient316">
      <stop
         style="stop-color:#000000;stop-opacity:1;"
         offset="0"
         id="stop312" />
      <stop
         style="stop-color:#4400aa;stop-opacity:1"
         offset="1"
         id="stop314" />
    </linearGradient>
    <linearGradient
       inkscape:collect="always"
       id="linearGradient308">
      <stop
         style="stop-color:#000000;stop-opacity:1;"
         offset="0"
         id="stop304" />
      <stop
         style="stop-color:#5500d4;stop-opacity:1"
         offset="1"
         id="stop306" />
    </linearGradient>
    <linearGradient
       id="linearGradient302"
       inkscape:collect="always">
      <stop
         id="stop298"
         offset="0"
         style="stop-color:#000000;stop-opacity:1;" />
      <stop
         id="stop300"
         offset="1"
         style="stop-color:#4400aa;stop-opacity:1" />
    </linearGradient>
    <linearGradient
       inkscape:collect="always"
       id="linearGradient286">
      <stop
         style="stop-color:#000000;stop-opacity:1;"
         offset="0"
         id="stop282" />
      <stop
         style="stop-color:#8d5fd3;stop-opacity:1"
         offset="1"
         id="stop284" />
    </linearGradient>
    <linearGradient
       inkscape:collect="always"
       id="linearGradient280">
      <stop
         style="stop-color:#000000;stop-opacity:1;"
         offset="0"
         id="stop276" />
      <stop
         style="stop-color:#5500d4;stop-opacity:1"
         offset="1"
         id="stop278" />
    </linearGradient>
    <linearGradient
       inkscape:collect="always"
       xlink:href="#linearGradient280"
       id="linearGradient268"
       x1="309.10669"
       y1="251.76819"
       x2="250.51784"
       y2="526.52966"
       gradientUnits="userSpaceOnUse" />
    <linearGradient
       inkscape:collect="always"
       xlink:href="#linearGradient286"
       id="linearGradient288"
       x1="71.628235"
       y1="96.547852"
       x2="76.973625"
       y2="53.784729"
       gradientUnits="userSpaceOnUse" />
    <linearGradient
       inkscape:collect="always"
       xlink:href="#linearGradient302"
       id="linearGradient296"
       x1="307.08636"
       y1="239.64636"
       x2="345.47217"
       y2="324.49918"
       gradientUnits="userSpaceOnUse" />
    <linearGradient
       inkscape:collect="always"
       xlink:href="#linearGradient308"
       id="linearGradient310"
       x1="113.32228"
       y1="57.526505"
       x2="113.85682"
       y2="114.72218"
       gradientUnits="userSpaceOnUse" />
    <linearGradient
       inkscape:collect="always"
       xlink:href="#linearGradient316"
       id="linearGradient318"
       x1="426.28439"
       y1="174.9966"
       x2="410.12195"
       y2="508.34695"
       gradientUnits="userSpaceOnUse" />
    <linearGradient
       inkscape:collect="always"
       xlink:href="#linearGradient334"
       id="linearGradient326"
       x1="120.80582"
       y1="52.181114"
       x2="147.53278"
       y2="83.718918"
       gradientUnits="userSpaceOnUse" />
    <linearGradient
       inkscape:collect="always"
       xlink:href="#linearGradient340"
       id="linearGradient342"
       x1="124.01306"
       y1="51.112034"
       x2="124.5476"
       y2="96.013313"
       gradientUnits="userSpaceOnUse" />
    <linearGradient
       inkscape:collect="always"
       xlink:href="#linearGradient348"
       id="linearGradient350"
       x1="64.649765"
       y1="199.24026"
       x2="48.487324"
       y2="599.26068"
       gradientUnits="userSpaceOnUse" />
    <linearGradient
       inkscape:collect="always"
       xlink:href="#linearGradient356"
       id="linearGradient358"
       x1="17.105249"
       y1="103.49686"
       x2="-26.192413"
       y2="178.33234"
       gradientUnits="userSpaceOnUse" />
  </defs>
  <sodipodi:namedview
     id="base"
     pagecolor="#ffffff"
     bordercolor="#666666"
     borderopacity="1.0"
     inkscape:pageopacity="0.0"
     inkscape:pageshadow="2"
     inkscape:zoom="0.35"
     inkscape:cx="-341.32056"
     inkscape:cy="768.10325"
     inkscape:document-units="mm"
     inkscape:current-layer="layer1"
     showgrid="false"
     inkscape:snap-page="false"
     inkscape:snap-object-midpoints="false"
     inkscape:object-nodes="false"
     inkscape:snap-others="false"
     inkscape:snap-grids="false"
     inkscape:snap-to-guides="false"
     inkscape:window-width="1366"
     inkscape:window-height="705"
     inkscape:window-x="-8"
     inkscape:window-y="-8"
     inkscape:window-maximized="1" />
  <metadata
     id="metadata5">
    <rdf:RDF>
      <cc:Work
         rdf:about="">
        <dc:format>image/svg+xml</dc:format>
        <dc:type
           rdf:resource="http://purl.org/dc/dcmitype/StillImage" />
      </cc:Work>
    </rdf:RDF>
  </metadata>
  <g
     inkscape:label="Capa 1"
     inkscape:groupmode="layer"
     id="layer1">
    <path
       id="path10"
       transform="scale(0.26458333)"
       style="stroke-width:0.99999994"
       d="m 50.519531,240.9375 c -1.320953,0.74876 -2.425957,1.3489 -3.59375,1.99219 0.119725,0.18425 0.242932,0.36231 0.353516,0.55859 z m 3.384766,3.38477 c -0.278091,0.0328 -1.680916,0.56865 -4.242188,1.5332 -0.372446,0.33177 -0.807251,0.60455 -1.132812,0.97851 0.03449,0.15094 0.07137,0.30022 0.101562,0.45508 3.699065,-1.99097 5.651407,-3.01138 5.273438,-2.96679 z m -15.925781,14.0664 c 0.05647,0.30384 0.109169,0.6126 0.154296,0.92969 0.24365,-0.0565 0.488891,-0.10443 0.730469,-0.17188 0.603436,-0.16847 0.0051,-0.50519 -0.884765,-0.75781 z m -16.740235,9.5 c -0.187867,0.0189 -0.759446,0.63255 -1.398437,1.34766 -0.06719,1.05989 -0.135085,2.11959 -0.201172,3.17773 0.08217,-0.19104 0.17315,-0.42902 0.257812,-0.63281 0.231064,-0.92779 0.586009,-1.79028 1.007813,-2.61523 0.113719,-0.31441 0.219182,-0.58281 0.337891,-0.92579 0.08841,-0.25543 0.07865,-0.35988 -0.0039,-0.35156 z m 22.367188,13.82813 c -0.12509,0.0718 -0.247057,0.12869 -0.367188,0.22265 0.165712,-0.0728 0.239234,-0.11197 0.363281,-0.16992 0.0011,-0.0176 0.0028,-0.0351 0.0039,-0.0527 z M 145.17383,481.49219 c -0.52169,0.0592 -1.04443,0.10442 -1.56641,0.16015 0.039,0.3027 0.0787,0.6203 0.11524,0.91993 z" />
    <path
       id="path12"
       transform="scale(0.26458333)"
       style="stroke-width:0.99999994;fill-opacity:1;fill:url(#linearGradient350)"
       d="m 156.39453,188.22656 c -1.80069,0.0631 -3.76574,0.53512 -5.25781,0.20313 -4.03986,8e-5 -8.07927,8.4e-4 -12.11914,0 -4.03591,-0.002 -8.07349,-0.003 -12.10938,-0.0137 -4.06887,-0.0113 -8.13619,-0.0343 -12.20508,-0.0215 -4.45591,0.0414 -8.93034,0.11083 -13.33984,0.82617 -14.772962,2.7556 -26.358855,10.98178 -39.33203,19.28321 -3.211869,2.56706 -6.094499,5.53873 -7.699219,9.39648 -1.866501,4.34243 -3.370392,8.75158 -2.960937,13.56445 0.04218,6.08625 0.08266,12.17143 0.08984,18.25782 -0.0017,5.75302 -0.124247,11.50493 -0.136719,17.25781 -2.99e-4,4.06769 -0.0027,8.13544 0,12.20312 0.0046,4.57243 0.01438,9.14447 0.04687,13.7168 0.04333,5.88829 0.156087,11.77615 0.496094,17.65625 0.367875,6.84297 0.859373,13.67307 1.509765,20.49414 0.06258,4.83114 0.195959,9.66753 0.916016,14.45508 0.928456,6.22196 2.397027,12.36457 2.921875,18.63867 l 26.507812,-13.98437 c -1.051876,-6.17565 -2.333494,-12.29957 -3.109375,-18.52149 -0.534618,-4.70191 -0.620637,-9.43705 -0.669922,-14.16406 -0.992042,-6.78696 -1.507125,-13.61633 -1.804687,-20.46484 -0.200126,-5.87924 -0.221335,-11.76439 -0.228516,-17.64649 0.0107,-4.58313 0.03875,-9.16493 0.05273,-13.74805 0.01113,-4.07111 0.01082,-8.14371 0.01172,-12.21484 -0.01134,-5.70686 -0.133068,-11.41212 -0.134765,-17.11914 0.007,-6.11665 0.04579,-12.23311 0.08789,-18.34961 -0.327743,-4.07997 1.380338,-7.66715 3.003907,-11.26758 3.179901,-0.45018 6.40079,-0.57524 9.611328,-0.65429 4.053827,-0.0604 8.108031,-0.032 12.162111,-0.0195 4.0374,0.0132 8.07587,0.0175 12.11328,0.0195 4.0402,0.002 8.07894,0.002 12.11914,0.002 2.32116,0.46212 5.77749,-0.67622 7.97852,0.0957 2.47827,0.86915 4.15783,2.8623 6.02539,4.57031 5.48844,5.29871 10.45071,10.89835 14.3164,17.47266 2.17652,3.70626 2.82802,7.82799 3.11133,12.03906 0.16441,3.97971 0.1031,7.96543 0.0781,11.94727 -0.0276,4.03859 -0.0369,8.07656 -0.043,12.11523 -0.005,4.0414 -0.004,8.0836 -0.004,12.125 1.5e-4,4.04069 -9e-5,8.08041 0,12.1211 7e-5,4.04061 0,8.08245 0,12.12304 -0.008,4.50444 -0.0414,9.00626 0.125,13.50782 0.094,7.45177 0.0375,14.90546 -0.0234,22.35742 -0.41359,5.2927 0.62187,10.4834 1.23828,15.71289 0.49335,4.33862 0.60937,8.70438 0.67188,13.0664 0.037,4.04647 0.0225,8.09404 0.0176,12.14063 -0.006,4.03624 -0.007,8.07315 -0.008,12.10937 -9.5e-4,4.04024 -0.002,8.08082 -0.002,12.1211 -0.0156,4.34071 0.0283,8.68081 0.0293,13.02148 0.001,4.46793 -0.037,8.93449 -0.002,13.40235 0.0249,5.25796 0.0383,10.51735 0.0351,15.77539 -0.0149,4.74826 -0.0383,9.49592 -0.0508,14.24414 -0.009,4.09119 -0.011,8.18225 -0.0117,12.27344 -3.2e-4,4.03275 -1.3e-4,8.0649 0,12.09765 1.3e-4,4.03933 -2e-5,8.07985 0,12.11914 1e-5,4.04066 0,8.08044 0,12.1211 -0.23101,3.94639 -3.65948,5.87516 -5.67969,8.8789 -0.65311,0.5111 -1.12128,1.14981 -1.59179,1.78516 -5.25122,3.2259 -10.42585,6.69978 -13.85938,9.69726 -4.33088,3.97777 -8.48655,8.14156 -12.66015,12.28321 -4.16518,3.70223 -7.03523,8.47341 -10.26563,12.93945 -2.4233,4.1204 -5.03901,8.12754 -7.4082,12.27734 -2.28472,3.07839 -4.59449,6.11101 -7.06446,9.05469 -0.46881,0.52997 -0.89958,1.09597 -1.40624,1.58985 -1.522763,1.48437 -3.150037,2.78758 -4.507818,4.45507 -3.316024,4.07237 0.773254,-0.3885 -2.585937,3.16993 -0.92911,2.30452 -3.414874,2.93356 -4.908203,4.66406 -2.904355,3.36559 0.992362,-0.47206 -1.984375,2.35351 -1.215534,1.38543 -2.258157,3.27177 -3.847656,4.28907 -2.769835,1.77263 0.190117,-0.69577 -2.353516,1.58007 -1.490408,3.00072 -3.354224,5.68123 -5.330078,8.39844 -0.798463,1.68832 -2.056237,3.01425 -3.058594,4.57617 l 27.455078,-11.98828 c 1.060889,-1.48119 2.048809,-3.00452 3.072269,-4.51172 1.80956,-2.61237 3.25109,-5.63746 5.72461,-7.66015 2.38506,-1.70563 4.03933,-4.12168 6.04492,-6.23047 2.15296,-2.46323 4.93705,-4.30993 6.75195,-7.10156 2.66283,-3.26041 5.76814,-6.07938 8.45899,-9.3125 2.41262,-3.04143 4.83193,-6.08894 6.82031,-9.4336 2.47888,-4.02085 4.78776,-8.14742 7.47656,-12.03515 3.1064,-4.42606 6.29474,-8.791 10.34961,-12.42188 4.20678,-4.15132 8.38921,-8.34913 12.96289,-12.10156 0.2376,-0.18229 0.30767,-0.23677 0.48633,-0.375 5.69941,-2.88355 10.26718,-5.66229 14.74023,-11.79102 2.67871,-3.1666 4.97684,-6.20393 4.81836,-10.60742 -1e-5,-4.04065 -2e-5,-8.08239 0,-12.12305 1e-5,-4.0394 -1.3e-4,-8.07781 0,-12.11718 1.4e-4,-4.0328 3.2e-4,-8.06682 0,-12.09961 -3.8e-4,-4.08745 3e-4,-8.17431 -0.01,-12.26172 -0.0126,-4.73068 -0.0376,-9.46072 -0.0527,-14.19141 -0.003,-5.27021 0.0122,-10.54037 0.0371,-15.81054 0.0348,-4.46684 -0.005,-8.93349 -0.004,-13.40039 0.001,-4.35073 0.0448,-8.70201 0.0293,-13.05274 0.001,-4.03994 9.2e-4,-8.07923 0.002,-12.11914 0.002,-4.03569 0.007,-8.07174 0.0117,-12.10742 0.004,-4.06306 0.0148,-8.12685 -0.0566,-12.18946 -0.10745,-4.44518 -0.30679,-8.89148 -0.88281,-13.30468 -0.6531,-5.09218 -1.44846,-10.17082 -1.19531,-15.32617 -0.0612,-7.44378 -0.11729,-14.88843 -0.0234,-22.33204 0.16184,-4.54447 0.13558,-9.08949 0.125,-13.63671 -1e-5,-4.04063 1e-4,-8.08048 0,-12.1211 -1.1e-4,-4.04065 4e-5,-8.0824 0,-12.12304 0,-4.03995 -3.3e-4,-8.07921 0.006,-12.11915 0.008,-4.03519 0.0212,-8.07035 0.0488,-12.10546 0.0217,-4.06125 0.0838,-8.12924 -0.19922,-12.1836 -0.46079,-4.63154 -1.43582,-9.13672 -3.89844,-13.16601 -4.13198,-6.73826 -9.48227,-12.33742 -15.02929,-17.94336 -0.86809,-0.88759 -5.46384,-5.71178 -6.65821,-6.46289 -0.82445,-0.51849 -1.84536,-0.62769 -2.92578,-0.58985 z m 19.00195,322.19922 c -0.68096,0.39105 -1.9211,1.12087 -2.79882,1.63086 0.20976,-0.13031 0.30546,-0.19569 0.45703,-0.29102 2.48393,-1.42356 -0.60242,0.34776 2.34179,-1.33984 z m -13.69531,7.99414 c -8.20624,4.8095 -15.56782,9.1075 -10.70312,6.01563 0.41173,-0.26169 0.79952,-0.49033 1.20117,-0.73828 -0.96309,0.55541 5.81905,-3.33031 6.76758,-3.8711 0.94919,-0.501 1.84452,-0.95838 2.73437,-1.40625 z m -10.08398,0.62891 c -0.0527,0.0412 -0.0991,0.0875 -0.1543,0.12695 -0.40544,0.2894 -1.74163,0.96574 -1.3125,0.71289 0.35319,-0.20819 1.05437,-0.60038 1.4668,-0.83984 z m 6.70508,1.12109 c -2.53126,1.45342 -3.40458,1.95562 -5.86524,3.36914 2.07956,-1.27587 4.03419,-2.38973 5.86524,-3.36914 z" />
    <path
       id="path14"
       transform="scale(0.26458333)"
       style="stroke-width:0.99999994;fill:url(#linearGradient268);fill-opacity:1"
       d="m 221.44531,258.77734 -26.70703,13.60938 c 0.18546,5.62598 0.1134,11.25677 0.082,16.88476 -0.02,4.53862 -0.0644,9.07663 -0.0293,13.61524 0.0267,4.71517 -0.0384,9.42973 0.0293,14.14453 -0.28641,5.66041 0.28979,11.23446 1.00196,16.83594 0.6059,5.06874 1.92206,10.02795 3.16211,14.97265 1.67322,5.15114 2.5947,10.47743 4.17382,15.65039 1.16664,3.60214 1.47069,7.36665 1.64258,11.12305 0.12287,3.95738 0.0978,7.91625 0.0898,11.875 -0.011,4.04085 -0.0165,8.0822 -0.0195,12.12305 -0.003,4.0419 -0.004,8.0831 -0.004,12.125 0,4.04069 -6e-5,8.08235 0,12.12305 4e-5,4.04057 -1e-5,8.08047 0,12.12109 0.29892,7.32744 0.16821,14.66494 0.0996,21.99609 -0.006,5.35416 -0.0508,10.70846 -0.0762,16.0625 -0.0181,4.165 -0.0214,8.33106 -0.0234,12.4961 -7.8e-4,2.68433 -1.1e-4,5.36836 0,8.05273 l 26.65234,-13.58008 c 1.1e-4,-2.68418 -0.001,-5.36855 -0.002,-8.05273 -0.002,-4.15729 -0.003,-8.31345 -0.0215,-12.4707 -0.0252,-5.32816 -0.0713,-10.65615 -0.0762,-15.98438 -0.0695,-7.3649 -0.19835,-14.73631 0.0977,-22.09766 -1e-5,-4.04058 5e-5,-8.08246 0,-12.12304 -5e-5,-4.04066 -6e-5,-8.08048 0,-12.1211 0,-4.04111 9.1e-4,-8.08197 0.004,-12.12304 0.004,-4.04039 0.0132,-8.08069 0.0234,-12.1211 0.005,-4.01109 0.0291,-8.02521 -0.1543,-12.0332 -0.25252,-3.98632 -0.71302,-7.96383 -2.02734,-11.76172 -1.63452,-5.08092 -2.67422,-10.31558 -4.17969,-15.4375 -1.17862,-4.85289 -2.38251,-9.72008 -2.99414,-14.68359 -0.73359,-5.48394 -1.07694,-10.95218 -0.82617,-16.49024 0.0668,-4.72457 0.004,-9.45085 0.0293,-14.17578 0.0346,-4.52915 -0.009,-9.05677 -0.0293,-13.58594 -0.0316,-5.65558 -0.10188,-11.31511 0.082,-16.96875 z" />
    <path
       id="path18"
       transform="scale(0.26458333)"
       style="stroke-width:0.99999994;fill:url(#linearGradient296);fill-opacity:1"
       d="m 261.85156,256.75781 -26.70703,13.60742 c 0.18546,5.62597 0.1134,11.25679 0.082,16.88477 -0.0284,4.46161 -0.0416,8.92309 -0.0488,13.38477 -0.19725,4.22239 0.4767,8.42536 1.64258,12.47461 1.3344,3.91589 1.90179,7.98709 2.21485,12.09179 0.2499,4.5198 0.22586,9.04734 0.21679,13.57227 -0.0144,4.12174 -0.0272,8.24347 -0.0332,12.36523 -0.0932,3.99194 -0.13794,7.89743 0.67969,11.8125 1.34304,2.79972 3.27779,5.27011 4.91797,7.92969 1.34191,2.64392 2.44056,5.45664 3.3789,8.2793 0.54582,3.22972 1.75476,6.27164 2.42383,9.47461 0.62028,3.6362 0.66241,7.3372 0.7168,11.01562 0.0344,4.0241 0.0189,8.04805 0.0117,12.07227 -0.007,4.04507 -0.0107,8.08965 -0.0117,12.13476 0.39967,3.77794 -0.32605,7.29839 -1.07422,10.95508 -0.26038,3.40845 -1.63214,6.50141 -2.26953,9.8418 -0.59712,3.8087 -0.64672,7.67325 -0.69922,11.51953 -0.0325,4.04046 -0.017,8.08055 -0.01,12.12109 0.0714,4.02399 -0.50081,8.04714 1.05469,11.83789 2.03075,3.38336 3.8918,3.11016 7.20117,2.16992 -0.54137,-1.2627 -0.9403,-2.39315 -1.25,-3.4414 2.99575,-1.87721 8.42723,-5.29287 16.92969,-10.56641 1.28102,0.009 2.5404,-0.007 3.74609,-0.0762 -3.66,2.13241 -7.31886,4.26502 -10.96679,6.41797 -0.43239,0.25519 0.91406,-0.41474 1.34765,-0.66797 3.29335,-1.92275 6.58913,-3.84325 9.88282,-5.76563 3.38624,-0.21902 6.31317,-0.8974 7.95703,-2.80859 1.10135,-1.28043 2.0737,-2.62736 3.28515,-3.79883 1.94886,-1.15666 3.89714,-2.3161 5.83789,-3.48632 1.07493,-0.64816 1.94012,-1.60138 2.98633,-2.29493 3.80581,-2.47925 7.6534,-4.7578 10.84375,-8.04297 2.19272,-1.70835 5.0813,-3.64397 7.57617,-5.24414 -4.22821,2.52514 -11.29742,6.69367 -22.47461,13.17383 2.29874,-5.55131 14.12909,-9.21872 23.59375,-13.88086 4.12047,-2.59663 6.07438,-3.62527 0.34571,-0.17578 2.94567,-1.46825 5.65465,-3.03533 7.74023,-4.79492 4.52705,-3.81948 -2.12663,1.20142 2.3457,-2.09766 1.42315,-1.27037 2.52786,-3.10367 4.17774,-4.11133 2.69148,-1.64379 -0.0524,0.57772 2.39648,-1.5664 0.41548,-0.23592 0.8701,-0.41683 1.24805,-0.70899 0.3928,-0.30376 0.66071,-0.74577 1.04297,-1.0625 1.65968,-1.37601 3.60212,-2.26784 5.23047,-3.67968 0.65523,-0.88082 0.999,-1.43206 1.66211,-2.04297 1.53018,-0.90985 3.05897,-1.82223 4.59765,-2.7168 l -27.06836,10.51563 c -1.05862,0.62518 -2.7491,1.60446 -3.52929,2.07226 -1.35709,0.81373 -2.02457,2.58571 -3.51563,3.25586 -2.62032,1.69629 -5.02416,3.67381 -7.55273,5.49414 -2.43123,1.6218 -4.23016,3.94744 -6.5332,5.73633 -0.41537,0.36437 -0.87552,0.72857 -1.3379,1.0918 -0.51335,0.28945 -1.01639,0.59638 -1.52734,0.89062 0.46017,-0.26096 0.91475,-0.51779 1.41797,-0.80078 -3.92652,3.06072 -9.05854,5.87477 -10,6.15625 -2.6177,1.80398 -5.12943,3.71852 -7.45508,5.79883 -1.48005,1.20105 -3.03534,2.28631 -4.60742,3.34766 -0.18277,-2.54315 0.23798,-5.19757 0.0195,-7.70899 -0.006,-4.023 -0.0247,-8.04772 0.043,-12.07031 0.094,-3.68587 0.20031,-7.39955 1.01367,-11.01172 0.83449,-3.28286 1.84632,-6.50923 2.24219,-9.89063 0.75762,-3.79755 0.90965,-7.58971 0.75586,-11.46093 0.002,-4.04387 0.006,-8.08699 0.0137,-12.13086 0.006,-4.04293 0.0239,-8.08625 -0.0312,-12.12891 -0.0825,-3.8688 -0.18158,-7.76142 -0.94531,-11.56836 -0.75952,-3.28797 -1.88609,-6.47199 -2.56641,-9.77929 -1.05781,-3.02153 -2.19026,-6.06547 -3.69531,-8.88672 -0.82649,-1.31049 -1.45833,-2.70984 -2.40039,-3.94727 -0.487,-0.63969 -1.16809,-1.13509 -1.57227,-1.83008 -0.21242,-0.36524 -0.30576,-0.78789 -0.45898,-1.18164 -0.69201,-3.72547 -0.44053,-7.48689 -0.46094,-11.26172 0.004,-4.12009 0.0149,-8.24124 0.006,-12.36133 -0.0206,-4.59139 -0.0482,-9.18575 -0.3418,-13.76953 -0.35019,-4.28476 -1.10827,-8.49806 -2.4414,-12.5957 -0.96455,-3.86215 -1.48237,-7.78856 -1.27344,-11.77734 -0.007,-4.4451 -0.0205,-8.89092 -0.0488,-13.33594 -0.0316,-5.65558 -0.10188,-11.31316 0.082,-16.9668 z m 24.12305,196.51758 c 2.76098,-1.90272 5.64937,-3.66665 8.58203,-5.35547 -7.37271,4.18109 -9.32734,5.57831 -8.58203,5.35547 z m 32.57812,-23.89648 c 14.44104,-8.52828 50.03581,-28.98647 -0.90039,0.34961 z m -3.37304,12.26562 c -0.11675,0.0582 -0.2282,0.1179 -0.34571,0.17578 -0.38959,0.24552 -0.70171,0.4393 -1.11914,0.70703 0.6935,-0.41416 0.9209,-0.55527 1.46485,-0.88281 z m 27.69922,-21.32617 c -0.11679,0.0684 -0.40388,0.23251 -0.52735,0.30469 0.43159,-0.25552 0.79147,-0.45949 0.52735,-0.30469 z m -28.32813,16.67383 c -4.6045,2.632 -9.58933,5.19397 -14.58008,7.90039 3.87745,-2.14253 8.64818,-4.73473 14.58008,-7.90039 z m -27.57812,19.2832 c -3.34054,1.90318 -8.28966,4.72407 -12.91407,7.36328 -0.002,-0.0103 -0.002,-0.0209 -0.004,-0.0312 4.91343,-2.78979 17.44765,-9.91269 12.91797,-7.33203 z m 1.33398,4.14258 c -0.51777,0.30525 -1.03848,0.60557 -1.55664,0.91015 0.0971,-0.0885 0.18248,-0.18565 0.2832,-0.27148 0.42414,-0.21294 1.68226,-0.87981 1.27344,-0.63867 z m -9.33203,3.07422 c -1.6536,1.4022 -0.40832,0.50403 -1.50781,0.93359 0.57584,-0.35496 0.90909,-0.56508 1.50781,-0.93359 z m -2.79688,1.73047 c -0.37658,0.40084 -0.68066,0.80218 -1.09765,0.68164 0.3937,-0.24327 0.69214,-0.43136 1.09765,-0.68164 z m -10.26367,3.0039 c 0.045,2e-4 0.0916,0.002 0.13672,0.002 -2.0007,1.14805 -5.01351,2.86661 -5.6543,3.24609 -0.44245,0.26203 -0.72729,0.72506 -1.09179,1.08789 -1.65242,1.96616 -3.61043,3.83941 -5.27149,5.3457 -2.1302,-8.68985 4.07294,-9.67447 11.44922,-9.67773 -0.96073,0.67563 -1.71324,1.21314 -1.08008,0.85351 2.02298,-1.14901 -0.24932,0.14283 1.51172,-0.85742 z" />
    <path
       id="path20"
       d="m 61.315343,69.439773 c 1.024286,-0.735253 2.014275,-1.513628 2.985788,-2.316699 2.307997,-2.104845 5.078659,-3.123457 7.952245,-4.746117 0.140351,-0.07925 0.577728,-0.285134 0.438219,-0.204407 -7.549401,4.368382 -8.408784,4.915562 -6.001271,3.404074 24.028773,-13.716405 -4.407755,2.494925 1.139528,-0.664327 2.395112,-1.364048 4.754267,-2.794407 7.194304,-4.076358 2.194862,-1.153142 -8.573518,4.983242 -6.458357,3.689704 2.345261,-1.434256 4.765955,-2.741353 7.148933,-4.11203 -2.156193,1.241761 -4.305027,2.496384 -6.468576,3.725286 -0.11317,0.06428 0.203007,-0.164531 0.315357,-0.230238 2.372725,-1.387699 4.789927,-2.699998 7.138059,-4.12892 2.125594,-1.293501 -4.309091,2.489406 -6.470264,3.722542 -0.886034,0.50556 0.582764,-0.370306 0.64329,-0.40652 2.441093,-1.912567 0.760735,-0.618516 7.430622,-4.384114 0.205213,-0.115858 0.645842,-0.121872 0.85798,-0.188047 0.261876,-0.08169 0.501081,-0.224639 0.758917,-0.318307 0.394071,-0.437084 0.954966,-0.474205 1.459828,-0.675568 0.248386,-0.09907 0.470861,-0.255249 0.71677,-0.36031 0.799901,-0.315031 1.459897,-0.768062 2.362319,-0.695666 0.992187,0.393329 1.19933,1.40427 1.326978,2.356125 0.09374,1.063847 0.07688,2.133539 0.07283,3.200387 -0.0062,1.07475 -0.01021,2.149509 -0.01241,3.224273 -0.0019,1.069496 -0.0019,2.138995 -0.0019,3.208493 -1.6e-5,1.069015 4.5e-5,2.138032 7.4e-5,3.207047 2.6e-5,1.069067 3.1e-5,2.138135 3.4e-5,3.207202 3e-6,1.069078 3e-6,2.138159 3e-6,3.207237 -3e-6,1.069078 -3e-6,2.138156 -3e-6,3.207234 0,1.069078 0,2.138156 0,3.207234 -0.0074,1.091197 0.07122,2.180246 -0.15816,3.25278 -0.230613,0.914929 -0.805706,1.556538 -1.526751,2.123461 -2.284373,2.571382 -5.544752,4.18696 -8.751584,5.38898 -0.650472,0.271386 -1.369832,0.216641 -2.04435,0.348922 -0.301054,0.05904 -0.585214,0.184621 -0.880087,0.269285 -2.415606,0.599673 -7.762107,4.236769 5.68615,-3.384836 0,0 -7.390733,2.908316 -7.390733,2.908316 v 0 c 4.2227,-2.441577 4.853501,-3.601021 7.99747,-4.346747 0.951762,-0.226253 1.956308,-0.260956 2.843292,-0.718036 2.43549,-1.267225 5.68992,-3.309218 -5.623626,3.351326 -0.102597,0.0604 0.2931,-0.08328 0.58561,-0.458857 0.08707,-0.111802 0.149694,-0.240654 0.224542,-0.360981 0.58289,-0.58674 1.430803,-0.910191 1.712796,-1.746983 0.446841,-0.951767 0.234884,-2.009677 0.274121,-3.033808 0,-1.069078 0,-2.138156 0,-3.207234 0,-1.069078 0,-2.138156 3e-6,-3.207234 0,-1.069078 0,-2.138156 -3e-6,-3.207234 0,-1.069062 -2e-6,-2.138125 -2.6e-5,-3.207184 -2.9e-5,-1.069036 -8.2e-5,-2.138069 -9.8e-5,-3.207105 2.9e-5,-1.069967 -1.1e-5,-2.139934 0.0013,-3.209901 0.0019,-1.075478 0.0051,-2.150956 0.01207,-3.226416 0.0054,-1.036402 0.02204,-2.074318 -0.04053,-3.109407 -0.04654,-0.479285 0.0016,-1.430459 -0.697563,-1.316667 -0.765244,0.222493 -1.450139,0.628001 -2.194846,0.90593 -0.734102,0.336272 -1.483707,0.636183 -2.205969,0.995164 -0.393213,0.147296 -0.811144,0.235831 -1.192726,0.412121 -0.12134,0.05606 -0.466614,0.260934 -0.351308,0.193328 6.729656,-3.945795 8.508727,-5.123897 6.124173,-3.555553 -0.416322,0.41293 -0.124497,0.175572 -0.621477,0.464638 -2.372794,1.380114 -4.748533,2.755257 -7.112884,4.149788 -2.140326,1.262399 4.291002,-2.507184 6.4408,-3.753382 0.111093,-0.0644 -0.216247,0.138533 -0.324372,0.207799 -2.365319,1.394513 -4.730636,2.789023 -7.095955,4.183533 16.397403,-9.478557 0.189214,-0.09874 -0.71863,0.380026 -2.186837,1.153272 4.282027,-2.472539 6.42039,-3.713387 0.12256,-0.07112 -0.250185,0.13326 -0.37288,0.204145 -2.388029,1.37964 -4.767233,2.774563 -7.159194,4.147375 -2.132113,1.223677 4.253098,-2.466649 6.379647,-3.699973 -2.69339,1.623335 -1.612109,0.975016 -7.590187,4.393205 -0.141142,0.0807 -0.579951,0.293267 -0.439941,0.210614 2.118646,-1.250685 4.25469,-2.471682 6.377321,-3.715589 0.276743,-0.162176 -1.182952,0.616493 -0.80558,0.526338 -0.887904,0.885013 -1.930426,1.620843 -2.94251,2.353728 0,0 -7.367167,2.956502 -7.367167,2.956502 z"
       inkscape:connector-curvature="0"
       style="stroke-width:0.26458332;fill-opacity:1;fill:url(#linearGradient288)" />
    <path
       id="path22"
       d="m 96.580652,52.382306 c 0.344408,1.496885 0.627803,3.006685 0.954609,4.507753 0.310097,1.258681 0.380947,2.555555 0.686268,3.813297 0.267187,0.971603 0.362289,1.972979 0.417613,2.975192 -0.01921,0.9363 -0.262189,1.847405 -0.375751,2.775222 -0.105497,1.022144 -0.114895,2.050759 -0.124364,3.077287 -0.0058,1.068673 -0.003,2.13737 -0.0019,3.206054 0.0013,1.069711 0.0016,2.139421 0.0019,3.209134 1.66e-4,1.069123 1.48e-4,2.138249 1.45e-4,3.207372 -1.1e-5,1.06907 -1.6e-5,2.138143 -2.1e-5,3.207213 -3e-6,1.069078 -3e-6,2.138153 -3e-6,3.207231 0,1.069078 0,2.138156 0,3.207234 0,1.069079 0,2.138157 0,3.207235 0.0021,1.020812 0.147662,2.059223 0.40585,3.047232 0.332428,0.925111 0.496242,1.88654 0.589589,2.861046 0.108411,1.017106 0.01365,2.045417 0.123698,3.060552 0.217128,0.91585 0.295813,1.85442 0.455579,2.77929 0.174008,0.55241 0.115853,1.85718 0.925556,1.87901 -0.13959,-0.007 0.53397,-0.37399 0.39133,-0.29455 -2.204484,1.22776 -4.40505,2.46256 -6.609611,3.69019 -0.09943,0.0554 0.195521,-0.11654 0.294129,-0.17337 2.375884,-1.36906 4.758841,-2.72589 7.129332,-4.10428 2.1558,-1.25355 -4.32351,2.48651 -6.485262,3.72977 0.704577,-0.50125 1.383607,-1.04552 2.010569,-1.64176 2.654673,-2.11637 5.879913,-3.68431 8.725573,-5.34467 -10.949452,7.47054 -7.164587,4.37498 -4.84272,2.28859 0.7531,-0.59704 1.33163,-1.36322 2.06342,-1.98632 0.72003,-0.5331 1.24976,-1.24345 1.85716,-1.890534 0.70709,-0.781788 1.43665,-1.522341 2.2287,-2.216743 2.51154,-1.78481 5.34198,-3.078869 7.98165,-4.669612 0,0 -6.21978,5.002911 -6.21978,5.002911 v 0 c -2.69275,1.24076 9.45004,-5.395484 5.60085,-3.274076 -0.86986,0.58946 -1.60189,1.312137 -2.27929,2.11184 -0.63204,0.641427 -1.13066,1.384972 -1.83405,1.933369 -0.92599,0.918485 0.25746,-0.216884 -0.73066,0.6105 -0.3808,0.318857 -0.63656,0.707585 -0.95403,1.077525 -0.11019,0.1284 -0.24221,0.23632 -0.36331,0.35448 -3.13895,2.18021 -2.5209,4.96855 -8.683441,5.65047 2.145111,-1.25551 4.290221,-2.51102 6.435331,-3.76653 -0.10629,0.0706 -0.22035,0.13066 -0.31889,0.21171 -0.30924,0.25436 -0.60447,0.52729 -0.94295,0.74815 -0.11418,0.0745 -0.24521,0.11923 -0.36781,0.17885 -0.69142,0.52941 -1.27934,1.18593 -1.97158,1.71632 -14.295835,8.36134 -4.889887,2.84904 -0.62808,0.39726 0.0982,-0.0565 -0.18121,0.13732 -0.27985,0.19317 -2.535837,1.4355 -5.142181,4.97076 -7.839479,3.86816 -0.873175,-0.61086 -1.103357,-1.53589 -1.276069,-2.54558 -0.209616,-0.93013 -0.233204,-1.89391 -0.484288,-2.81903 -0.165277,-1.02342 -0.0469,-2.06624 -0.137949,-3.09866 -0.07058,-0.93028 -0.198781,-1.851746 -0.523761,-2.732504 -0.298082,-1.042336 -0.449569,-2.160257 -0.496766,-3.239354 0,-1.069078 0,-2.138156 0,-3.207235 0,-1.069078 0,-2.138156 0,-3.207234 0,-1.069078 0,-2.138156 3e-6,-3.207234 3e-6,-1.06907 8e-6,-2.138143 1.6e-5,-3.207213 1.1e-5,-1.069086 3.2e-5,-2.138172 -6.4e-5,-3.207255 -1.4e-4,-1.06952 -2.64e-4,-2.139043 -0.0013,-3.20856 -0.0011,-1.070417 -0.0034,-2.140833 -0.0016,-3.211248 0.0045,-1.047742 0.0075,-2.096648 0.08168,-3.142297 0.0791,-0.901227 0.219382,-1.789647 0.434324,-2.669051 -0.04014,-0.955706 -0.105267,-1.913781 -0.348723,-2.84327 -0.305261,-1.27404 -0.363281,-2.578653 -0.639233,-3.860263 -0.323345,-1.513274 -0.590757,-3.041092 -1.046041,-4.522176 0,0 7.013834,-3.70001 7.013834,-3.70001 z"
       inkscape:connector-curvature="0"
       style="stroke-width:0.26458332;fill-opacity:1;fill:url(#linearGradient310)" />
    <path
       id="path24"
       transform="scale(0.26458333)"
       style="stroke-width:0.99999994;fill-opacity:1;fill:url(#linearGradient318)"
       d="m 434.29297,150.73438 c -1.97005,0.0538 -3.91671,0.81311 -5.82031,1.77343 -9.31615,1.64766 -14.84352,6.19958 -23.16407,11.7461 6.01552,-3.45477 10.98972,-6.30125 7.79688,-4.4375 -0.51595,0.30117 -1.53412,0.88489 -2.13867,1.23632 -2.1525,1.23416 -4.30145,2.47481 -6.44727,3.72071 -0.0456,0.0301 -0.0909,0.0597 -0.13672,0.0898 -1.14589,0.6619 -1.97153,1.14376 -3.1582,1.82813 -0.007,0.001 -0.0143,0.003 -0.0215,0.004 -0.98234,0.5707 -1.96618,1.1395 -2.94921,1.70899 -2.55946,1.46015 -5.11157,2.93299 -7.66797,4.39843 -0.53208,0.30148 -1.06073,0.60841 -1.59375,0.90821 -4.03505,2.26951 3.96319,-2.35486 11.98828,-6.97266 -11.71272,2.24494 -21.80748,11.14037 -31.43555,16.86133 -20.15827,11.97801 93.17348,-54.13953 -3.61914,2.27344 -4.27493,3.36928 -8.42001,6.88941 -12.96484,9.90625 l 15.83398,-6.35352 c -0.72019,0.42205 0.1999,-0.11201 0.0352,-0.0137 l 11.97656,-4.80664 c 1.93311,-1.09024 3.67883,-2.42193 5.37891,-3.8125 2.86126,-1.59804 5.71372,-3.21153 8.5625,-4.83203 0.52344,-0.26142 1.10327,-0.55692 1.42578,-0.70117 1.68623,-0.93859 3.76828,-2.1242 5.91211,-3.34961 0.70313,-0.32441 1.9734,-0.93229 2.59961,-1.16016 2.82054,-0.66801 5.4159,-2.21915 8.36133,-2.28125 2.13426,1.81396 1.82096,6.02811 1.94531,8.61328 0.1149,4.12088 0.0557,8.24351 0.0293,12.36524 -0.0276,4.05967 -0.0353,8.11993 -0.0391,12.17968 -0.004,4.04056 -0.002,8.08054 -0.002,12.1211 1.9e-4,4.04031 -8e-5,8.08078 0,12.12109 0.0302,4.52494 0.0348,9.04916 0.0234,13.57422 0.1062,4.28283 -0.31946,8.59451 0.30273,12.8418 0.73886,5.09548 1.76581,10.1626 3.16016,15.12109 1.60274,4.7803 2.14723,9.74568 2.46093,14.74609 0.22829,5.63876 0.2219,11.28527 0.19922,16.92774 -0.0317,4.54452 -0.0591,9.08821 -0.0742,13.63281 -0.0106,4.05773 -0.0113,8.11609 -0.0117,12.17383 -8e-5,4.03382 -1.6e-4,8.06774 0,12.10156 1.8e-4,4.03991 0.002,8.07923 0.002,12.11914 -0.048,4.60198 0.0481,9.20149 0.0859,13.80274 0.009,5.36555 -0.0361,10.73219 -0.0625,16.09765 -0.0189,4.1898 -0.0234,8.37849 -0.0254,12.56836 -0.001,4.02936 -0.002,8.06049 -0.002,12.08985 2.3e-4,4.03759 0.002,8.07377 0.002,12.11132 -0.32701,3.92217 0.25051,7.66731 1.02539,11.48633 0.70219,3.57441 0.84055,7.2208 0.94336,10.85156 -0.25399,3.87742 0.32819,7.58141 1.08984,11.35743 0.3806,2.25683 0.21074,1.11904 0.50781,3.41015 l 26.50196,-13.96289 c -0.35143,-2.41338 -0.15782,-1.22081 -0.58204,-3.58203 -0.72567,-3.61636 -1.02549,-7.19638 -0.90039,-10.89453 -0.1401,-3.79109 -0.35479,-7.59263 -1.13281,-11.31641 -0.7302,-3.62812 -1.02421,-7.21703 -0.80273,-10.92773 7e-5,-4.03767 -2.3e-4,-8.07561 0,-12.11328 1.9e-4,-4.02913 0.001,-8.05877 0,-12.08789 -0.004,-4.18139 -0.008,-8.36358 -0.0274,-12.54493 -0.0242,-5.34447 -0.0701,-10.68862 -0.0625,-16.0332 0.0367,-4.63078 0.13552,-9.25912 0.0879,-13.89062 0,-4.03996 -3e-5,-8.08114 0,-12.1211 8e-5,-4.03385 -3e-4,-8.06771 0,-12.10156 3.4e-4,-4.05447 8.7e-4,-8.10764 0,-12.16211 0,-4.52932 -0.003,-9.05861 -0.0254,-13.58789 -0.0283,-5.68725 -0.0307,-11.37766 -0.34179,-17.05859 -0.31363,-5.21608 -0.96237,-10.35491 -2.67579,-15.32422 -1.29025,-4.85199 -2.34407,-9.77936 -2.85937,-14.77735 -0.3549,-4.15681 -0.0776,-8.34178 -0.17969,-12.50976 -0.008,-4.53237 -0.003,-9.06345 0.0234,-13.5957 -8e-5,-4.0403 7e-5,-8.0808 0,-12.1211 0,-4.03935 1.3e-4,-8.07979 0.004,-12.11914 0.006,-4.05513 0.0164,-8.10899 0.0391,-12.16406 0.0204,-4.17864 0.0712,-8.36151 -0.12305,-12.53711 -0.29628,-4.22485 -0.62848,-8.61148 -3.6914,-11.8418 -1.19338,-0.58398 -2.38438,-0.80573 -3.56641,-0.77343 z m -33.3125,16.0039 c 0.0742,-0.0142 0.1483,-0.0293 0.22265,-0.043 1.10475,-0.6418 2.21151,-1.28035 3.31641,-1.92187 0.26334,-0.17366 0.53138,-0.34776 0.78906,-0.51953 -1.54657,0.88821 -2.68047,1.53628 -4.32812,2.48437 z m 15.82226,-3.80078 c 0.002,0.0103 -4.83046,2.82995 -7.91015,4.63086 0.0771,-0.0609 0.18424,-0.1401 0.28906,-0.2168 1.09391,-0.63041 7.6201,-4.41903 7.62109,-4.41406 z m -5.83203,3.33398 c -0.51087,0.29721 -1.0223,0.59348 -1.5332,0.89063 0.0379,-0.0263 0.0411,-0.0326 0.082,-0.0606 0.45986,-0.31475 1.93284,-1.11029 1.45117,-0.83008 z" />
    <path
       id="path26"
       transform="scale(0.26458333)"
       style="stroke-width:0.99999994"
       d="m 446.64453,443.13672 c -5.12133,2.40635 -10.18737,4.94301 -15.38086,7.1914 -2.99571,0.97384 -5.89957,2.15909 -8.76562,3.44336 0.69232,-0.19748 1.39538,-0.36391 2.06054,-0.63671 0.81468,-0.33411 1.57028,-0.80507 2.39063,-1.125 2.08758,-0.81419 4.41689,-1.29815 6.6543,-1.30469 0.42145,-0.0255 0.9694,-0.32485 1.35937,-0.2832 0.12999,0.0139 0.24164,0.0652 0.32617,0.17773 0.25135,0.33464 0.49576,0.68345 0.74414,1.02539 z m -13.08008,8.38086 c -0.0178,0.002 -0.056,0.012 -0.0781,0.0156 -0.35921,0.0865 -0.69995,0.17067 -0.82617,0.375 z M 179.45898,560.97266 c -0.18971,0.15789 -0.37688,0.31849 -0.5664,0.47656 -0.0354,0.10998 -0.077,0.23339 -0.11133,0.33984 0.17706,-0.19595 0.35434,-0.3918 0.53125,-0.58789 0.0488,-0.0762 0.0979,-0.15234 0.14648,-0.22851 z m -47.29101,84.63086 c -0.0299,1.50273 -0.0439,3.00594 -0.0527,4.50781 l 0.94141,-0.47852 c -0.33092,-1.34118 -0.64112,-2.68301 -0.88867,-4.02929 z" />
    <path
       id="path28"
       d="m 127.01173,36.930417 c -0.0599,1.648163 -0.0319,3.297624 -0.0327,4.94642 -0.009,1.689118 -0.003,3.37826 0.003,5.067379 0.008,1.286034 0.0155,2.572065 0.0195,3.858114 0.003,1.079035 0.003,2.158074 0.003,3.237111 4e-5,1.066319 -6e-5,2.132637 -1.1e-4,3.198956 -4e-5,1.068747 -5e-5,2.137494 -5e-5,3.206242 0.0329,1.029795 -0.0641,2.067501 0.0445,3.093209 0.048,0.922388 0.50849,1.644581 0.91247,2.437958 0.39726,0.918509 0.59564,1.908035 0.94782,2.841993 0.30123,0.849336 0.6093,1.69519 0.89969,2.548704 0.29768,0.964534 0.34941,1.975882 0.38788,2.97738 0.10375,1.144326 -0.23581,2.225279 -0.56217,3.303334 -0.31381,1.014352 -0.40973,2.070486 -0.46521,3.124949 -0.0402,1.06336 -0.0344,2.127766 -0.0329,3.191684 0.003,1.069184 0.004,2.138371 0.005,3.207557 0.0748,0.404826 -0.18067,2.057895 0.11757,2.269964 2.4378,-3.055091 -8.694,5.748197 -5.77955,2.832187 0.44005,-0.651452 1.11544,-1.067692 1.69133,-1.583592 0.31179,-0.232735 0.63376,-0.476501 0.97183,-0.670907 23.73107,-13.646467 -15.86375,9.150215 7.83847,-4.490979 0.40845,-0.178726 0.85536,-0.179083 1.24967,-0.399333 0.26468,-0.147841 1.02452,-0.648163 0.76177,-0.496919 -2.13938,1.231458 -4.27887,2.462715 -6.4183,3.694073 0.63954,-0.512144 1.37048,-0.886876 2.00782,-1.400731 23.80237,-13.728999 -4.46485,2.477082 0.98271,-0.650208 2.38493,-1.369126 4.7538,-2.767687 7.17052,-4.079894 2.18518,-1.186487 -4.31524,2.471804 -6.47575,3.702654 -0.12252,0.0698 0.2411,-0.146289 0.36166,-0.219433 4.38006,-2.732878 14.53908,-8.380452 1.14329,-0.732837 -0.26365,0.150519 0.51258,-0.325811 0.77538,-0.477819 2.39946,-1.387891 4.80098,-2.772191 7.20147,-4.158287 -11.9728,6.605794 -6.90308,4.426397 -4.7093,2.410783 0.45875,-0.466106 0.97984,-0.83991 1.49809,-1.233612 0,0 7.39779,-2.891428 7.39779,-2.891428 v 0 c -1.42801,0.812052 0.77451,-0.469352 -0.62729,0.445884 -0.33637,0.219615 -0.70356,0.310047 -0.90509,0.70793 -1.02977,0.771274 0.42176,-0.347723 -0.59916,0.551839 -2.33416,2.056712 -6.77134,2.849292 -8.22129,4.984527 2.11778,-1.229246 4.23025,-2.467697 6.35335,-3.687741 0.26145,-0.150244 -0.51228,0.318431 -0.77311,0.469744 -2.38759,1.385075 -4.76672,2.784732 -7.15695,4.165243 -2.00172,1.15612 8.97511,-5.306917 5.99843,-3.47998 -2.33601,2.055841 -1.19339,1.088766 -7.47141,4.390104 -2.19791,1.155779 4.29885,-2.487234 6.44586,-3.735004 0.11129,-0.06467 -0.22747,0.12065 -0.33856,0.185653 -2.36917,1.386269 -4.75138,2.75069 -7.10206,4.168082 -2.12791,1.28307 4.28915,-2.51006 6.43372,-3.765092 -0.68097,0.457218 -1.27548,1.027898 -2.01968,1.396719 -3.2125,1.905167 -5.85297,3.805238 -9.14577,5.119362 16.60314,-9.602634 0.007,0.0047 -0.69489,0.372131 -2.19987,1.150977 4.29753,-2.487554 6.44373,-3.73575 0.68687,-0.399473 -1.57349,1.061305 -1.00337,0.588201 -0.6186,0.425384 -1.14634,0.970148 -1.76277,1.396619 -1.43033,2.422541 -6.95434,4.506828 -7.4228,4.774726 -0.12497,0.07147 -0.56775,-0.08255 -0.66036,-0.139417 -0.11106,-0.0682 -0.1946,-0.173429 -0.2919,-0.260143 -0.53739,-0.818539 -0.26658,-1.805001 -0.31613,-2.743933 -7.9e-4,-1.068951 -0.002,-2.137905 -0.005,-3.206853 -0.002,-1.074616 -0.009,-2.149457 0.0167,-3.223869 0.0389,-1.107501 0.10279,-2.220648 0.38559,-3.297669 0.2847,-1.011597 0.74207,-2.000437 0.66615,-3.074786 -0.0257,-0.927857 -0.049,-1.867252 -0.29568,-2.768293 -0.27408,-0.847744 -0.59401,-1.677686 -0.87368,-2.523255 -0.34936,-0.905973 -0.55543,-1.863338 -0.91196,-2.767594 -0.43652,-0.867799 -0.96302,-1.669518 -1.03655,-2.671498 -0.16877,-1.054111 -0.0478,-2.129054 -0.0834,-3.193513 0,-1.068729 -1e-5,-2.137457 -5e-5,-3.206189 -5e-5,-1.066279 -1.4e-4,-2.13256 -1.1e-4,-3.198841 1.4e-4,-1.08009 2.6e-4,-2.160183 0.003,-3.24027 0.004,-1.292675 0.0118,-2.585331 0.0195,-3.877988 0.006,-1.690044 0.0118,-3.380107 0.003,-5.070152 -7.9e-4,-1.637678 0.0276,-3.27606 -0.0327,-4.913087 0,0 7.06641,-3.600519 7.06641,-3.600519 z"
       inkscape:connector-curvature="0"
       style="stroke-width:0.26458332;fill-opacity:1;fill:url(#linearGradient342)" />
    <path
       id="path30"
       d="m 124.85877,33.58167 c 1.30454,-0.130767 2.31495,-0.885102 3.45868,-1.420156 0.96465,-0.554887 1.94862,-1.043596 3.03071,-1.31731 0.90061,-0.426432 1.77335,-0.85879 2.74825,-1.088025 0.64305,-0.213159 1.39096,-0.0085 2.00606,-0.315333 0.24084,-0.120129 0.4375,-0.314296 0.6663,-0.456017 0.12473,-0.05405 0.49173,-0.230418 0.37418,-0.162153 -2.15138,1.249371 -4.31478,2.477966 -6.47796,3.706794 -0.11326,0.06434 0.21466,-0.148151 0.32763,-0.213003 1.24199,-0.712957 5.30197,-3.391604 7.98571,-4.473506 0.1584,-0.04695 0.3229,-0.07683 0.47521,-0.140854 0.27974,-0.11758 1.07511,-0.562578 0.81251,-0.410532 -2.02054,1.169876 -8.11785,4.617254 -6.09262,3.455524 2.38862,-1.370174 4.78246,-2.731222 7.17369,-4.096832 -2.15388,1.234244 -4.30485,2.47356 -6.46163,3.702735 -0.11604,0.06614 0.22302,-0.147396 0.33912,-0.213436 2.39137,-1.360284 4.76962,-2.744343 7.18292,-4.065323 0.12844,-0.07031 0.29085,-0.04822 0.42762,-0.100494 0.25133,-0.09605 0.47762,-0.249455 0.72631,-0.352161 0.84807,-0.18419 1.59628,-0.57212 2.45374,-0.734884 0.92478,-0.585552 1.44783,0.162562 1.70811,1.005457 0.18724,1.220965 0.13077,2.469841 0.13255,3.702532 1.5e-4,1.191972 -0.002,2.383938 -0.003,3.575907 -0.001,1.07501 -0.001,2.150018 -0.001,3.225028 -7e-5,1.067533 -4e-5,2.135066 -3e-5,3.202598 0.007,1.233028 -0.0151,2.465748 -0.0156,3.698751 0.003,1.250151 0.009,2.500289 0.0127,3.750437 0.003,1.082649 0.003,2.165297 0.003,3.247946 1e-4,1.067106 3e-5,2.134216 -1e-5,3.201323 -3e-5,1.068739 -4e-5,2.137481 -5e-5,3.206223 0,1.069089 0,2.138175 0,3.207264 0,1.069083 0,2.138166 0,3.20725 0.033,1.029771 -0.0641,2.067456 0.0445,3.093143 0.0881,0.851093 0.47451,1.613016 0.7103,2.424954 0.33435,0.75279 0.5419,1.546622 0.84149,2.312064 0.3085,0.871953 0.61381,1.742585 0.98343,2.590421 0.3893,0.929818 0.55014,1.927135 0.55456,2.929943 -0.0579,0.606523 -0.17608,1.205532 -0.30756,1.79973 0,0 -7.17771,3.384688 -7.17771,3.384688 v 0 c 0.22855,-0.522896 0.2586,-1.082572 0.39243,-1.635921 0.152,-0.869215 -0.0796,-1.77345 -0.37364,-2.592991 -0.36913,-0.85774 -0.68874,-1.732486 -1.00458,-2.610768 -0.31018,-0.79117 -0.52529,-1.608278 -0.87656,-2.384364 -0.22727,-0.852903 -0.65337,-1.637496 -0.75459,-2.524628 -0.16877,-1.054087 -0.0478,-2.129012 -0.0834,-3.193449 0,-1.069084 0,-2.138167 0,-3.207253 0,-1.069086 0,-2.138172 0,-3.207258 0,-1.068726 -1e-5,-2.137452 -5e-5,-3.206176 -3e-5,-1.067104 -1.1e-4,-2.134208 -1e-5,-3.201313 2.1e-4,-1.083667 5.3e-4,-2.167337 0.003,-3.251001 0.003,-1.254453 0.01,-2.508893 0.0127,-3.763346 -5.3e-4,-1.227685 -0.0226,-2.455079 -0.0157,-3.682791 -6e-5,-1.067554 -1.9e-4,-2.135108 -1.4e-4,-3.202665 1.8e-4,-1.076195 2.7e-4,-2.152396 0.004,-3.228588 0.005,-1.195401 0.0145,-2.390767 0.0249,-3.586134 0.006,-1.162582 0.0283,-2.330722 -0.0944,-3.488423 -0.0214,-0.111132 0.0161,-0.285689 -0.089,-0.32767 -0.12137,-0.04848 -0.80942,0.538848 -0.93081,0.347866 -0.80209,0.25396 -1.59264,0.548738 -2.38116,0.838724 -7.26212,3.233923 21.09555,-11.741007 -2.18406,1.063588 2.14234,-1.241232 4.28369,-2.484178 6.42701,-3.723698 0.11988,-0.06933 -0.23668,0.143901 -0.35664,0.213106 -2.38684,1.377008 -4.76978,2.760871 -7.16372,4.125507 -0.40723,0.232135 -0.87117,0.331851 -1.28525,0.549146 -0.5596,0.285853 -0.90215,0.461549 -0.81851,0.412631 13.7052,-8.016039 2.72071,-1.478881 -1.36874,0.778425 -0.87363,0.404191 -1.8514,0.319442 -2.75862,0.629441 -0.92614,0.330314 -1.78907,0.814544 -2.73522,1.093012 -1.02615,0.381413 -1.9768,0.922073 -2.95108,1.417294 -1.13424,0.601205 -2.30499,1.025864 -3.54918,1.349785 0,0 6.26953,-4.870781 6.26953,-4.870781 z"
       inkscape:connector-curvature="0"
       style="stroke-width:0.26458332;fill-opacity:1;fill:url(#linearGradient326)" />
    <path
       id="path61"
       d="m 21.745184,87.127343 c 0.301051,1.347865 0.631034,2.684627 0.832443,4.052475 0.157658,1.082718 0.107589,2.177479 0.318602,3.251605 0.228057,0.957511 0.316418,1.936401 0.369182,2.916616 -0.0205,0.973246 0.06214,1.916139 0.254522,2.867631 0.328412,0.96868 0.574301,1.95074 0.716666,2.96337 0.05271,1.16057 0.225524,2.30508 0.340027,3.45918 0.153092,1.6229 0.244252,3.25053 0.29804,4.87948 0.03328,1.1546 0.03492,2.30977 0.03573,3.46475 -3.97e-4,1.06575 -0.0018,2.1315 -0.0025,3.19726 -6.09e-4,1.06751 -6.88e-4,2.13502 -7.41e-4,3.20254 -3.2e-5,1.06903 -1.5e-5,2.13806 -8e-6,3.20709 7e-6,1.0691 9e-6,2.1382 1.1e-5,3.2073 1e-6,1.06908 1e-6,2.13816 1e-6,3.20724 0,1.06908 0,2.13816 0,3.20723 0,1.06908 0,2.13816 0,3.20724 0.118356,0.91463 0.320313,1.81291 0.423004,2.73102 0.15499,1.04923 0.09203,1.98774 -0.491115,2.88793 -0.582027,0.83755 -1.449474,1.40695 -2.236902,2.03275 -0.760465,0.5398 -1.422194,1.18473 -2.033646,1.88522 -0.609969,0.68869 -1.095827,1.46452 -1.590872,2.23615 -0.279319,0.34946 -0.574715,0.68011 -0.844917,1.03675 0,0 -7.254933,3.19821 -7.254933,3.19821 v 0 c 0.215771,-0.41286 0.428874,-0.81064 0.805153,-1.10433 0.637679,-0.67816 0.930472,-1.5949 1.611911,-2.24144 0.541173,-0.80046 1.206018,-1.47776 1.943781,-2.09228 0.812313,-0.54544 1.560946,-1.17703 2.326358,-1.78907 0.733256,-0.96307 0.916732,-1.05729 0.743192,-2.37997 -0.09043,-0.94746 -0.280218,-1.87329 -0.452324,-2.80812 0,-1.06908 0,-2.13816 0,-3.20723 0,-1.06908 0,-2.13816 0,-3.20724 0,-1.06908 0,-2.13816 0,-3.20724 0,-1.0691 0,-2.13819 -7e-6,-3.20729 -7e-6,-1.06903 -2e-5,-2.13806 -4e-5,-3.2071 -1.3e-5,-1.06758 -5.9e-5,-2.13515 2.46e-4,-3.20274 4.23e-4,-1.06603 0.0011,-2.13206 0.0036,-3.1981 0.0027,-1.1534 0.0082,-2.30685 -0.0023,-3.46023 -0.02261,-1.61032 -0.06686,-3.22266 -0.244528,-4.8246 -0.156284,-1.14282 -0.380404,-2.26734 -0.383023,-3.42625 -0.116444,-0.99792 -0.333871,-1.96884 -0.702018,-2.90701 -0.200849,-0.99017 -0.357515,-1.96189 -0.30088,-2.97901 -0.03994,-0.94155 -0.102805,-1.884892 -0.320425,-2.805187 -0.231596,-1.097285 -0.213618,-2.200584 -0.311379,-3.315507 -0.167358,-1.367282 -0.444335,-2.715141 -0.863805,-4.029082 0,0 7.013832,-3.700011 7.013832,-3.700011 z"
       inkscape:connector-curvature="0"
       style="stroke-width:0.26458332;fill:url(#linearGradient358);fill-opacity:1" />
    <path
       id="path97"
       transform="scale(0.26458333)"
       style="stroke-width:0.99999994"
       d="m 446.01758,444.86719 c -2.37973,0.69587 -4.75393,1.40864 -7.11914,2.15234 -2.53395,0.76222 -4.98352,1.7628 -7.46875,2.66406 -2.37725,0.96613 -4.72014,2.01541 -7.03907,3.11329 -1.06628,0.4797 -2.11432,0.99426 -3.16406,1.50781 1.38099,-0.4677 2.78946,-0.85667 4.14844,-1.38477 1.53596,-0.5969 3.01571,-1.32913 4.52344,-1.99414 l 4.19922,-1.61719 c 3.96166,-1.49238 7.88663,-3.16132 11.91992,-4.4414 z m -62.51563,22.60547 c -0.42013,0.13423 -0.84186,0.2633 -1.26172,0.39843 -0.11408,0.0394 -0.22951,0.0744 -0.34375,0.11329 0.0874,0.0359 0.18663,0.0621 0.26954,0.10156 0.44397,-0.20672 0.88876,-0.4142 1.33593,-0.61328 z m -5.7207,2.04296 c -0.2242,0.004 -0.48435,0.0538 -0.50391,0.18555 -0.0103,0.0693 -0.0138,0.13957 -0.0234,0.20899 0.0247,-0.008 0.0463,-0.0139 0.0703,-0.0215 0.24496,-0.0944 0.52278,-0.19476 0.74609,-0.28515 0.1234,-0.0499 -0.0649,-0.0917 -0.28906,-0.0879 z M 157.58594,616.4375 c -0.20159,0.26728 -0.40732,0.53016 -0.60742,0.79883 -1.81155,2.23542 -3.40674,4.59842 -4.8711,7.03515 1.23131,-1.68302 2.49347,-3.34444 3.7832,-4.98632 0.14309,-0.19065 0.56155,-0.74783 0.72266,-0.96289 0.32373,-0.6284 0.64855,-1.25641 0.97266,-1.88477 z" />
    <path
       style="fill:#22002b;stroke-width:0.26458332"
       id="path248"
       d="m 44.643291,169.4799 c 0.48011,-1.28817 0.71868,-2.64404 0.879761,-4.00386 0.02188,-1.07296 0.219329,-2.11513 0.42146,-3.16394 0.0727,-0.95034 0.455242,-1.80756 0.802333,-2.67909 0.257683,-0.89685 0.504486,-1.79381 0.798428,-2.68068 0.321434,-0.76843 0.976246,-1.30313 1.514766,-1.91476 0.535863,-0.75888 1.29555,-1.31425 1.995839,-1.91296 0.50895,-0.6947 1.112187,-1.20079 1.815706,-1.68135 0.698381,-0.33913 1.119364,-0.99885 1.634312,-1.54895 19.331033,-11.16083 0.437349,-0.29787 0.66724,-0.42823 2.389867,-1.35512 4.754607,-2.75437 7.148986,-4.10151 2.169903,-1.22084 -4.311251,2.49184 -6.475534,3.72261 -0.11284,0.0642 0.207576,-0.15702 0.319923,-0.22205 2.379163,-1.37722 4.768943,-2.73601 7.153415,-4.10401 -2.157827,1.2378 -4.312557,2.48102 -6.473481,3.71341 -0.114083,0.0651 0.220298,-0.14311 0.332587,-0.21122 0.215371,-0.13064 0.411115,-0.29227 0.628248,-0.41996 2.36901,-1.39315 4.73606,-2.79031 7.130544,-4.13921 0.124273,-0.07 0.275585,-0.0737 0.41338,-0.11056 2.746748,-1.22625 7.080689,-3.89486 -4.675992,2.83723 2.54608,-1.73124 1.225519,-0.84506 7.469032,-4.32935 0.124925,-0.0697 0.282969,-0.0544 0.414969,-0.10956 0.121468,-0.0508 0.45193,-0.27021 0.337601,-0.20494 -6.537338,3.73213 -8.467331,5.24088 -6.187877,3.48465 0.674325,-0.54298 1.389825,-1.03225 2.037054,-1.60799 2.718707,-2.04582 5.842616,-3.61825 8.743283,-5.30871 0.866349,-0.39985 1.853216,-0.47724 2.722025,-0.84911 -0.374417,0.44116 1.772288,-0.96467 1.136193,-0.59801 -2.135325,1.23083 -8.522928,4.95442 -6.41009,3.68537 0.817375,-0.49095 17.149956,-9.88573 0.784342,-0.46724 2.62773,-1.83458 0.300818,-0.22575 7.54372,-4.39337 0.280734,-0.16154 1.153909,-0.58752 0.874107,-0.42438 -2.118826,1.23545 -8.470411,4.94753 -6.388661,3.65058 2.346304,-1.46176 4.788556,-2.76357 7.182834,-4.14535 -16.762126,9.66019 0.590788,-0.33962 0.852644,-0.49433 2.11057,-1.247 -4.244687,2.4538 -6.375855,3.66525 -0.134774,0.0766 0.251417,-0.18237 0.385558,-0.26008 2.392019,-1.3857 4.797351,-2.7483 7.191931,-4.12957 2.138947,-1.23381 -4.283358,2.45814 -6.425036,3.6872 0.695137,-0.36771 1.286283,-0.87377 1.89338,-1.36406 0.566838,-0.51513 1.083199,-1.08203 1.648761,-1.59801 2.76551,-1.93773 5.458476,-4.28393 8.762082,-5.16304 2.480905,-1.5107 -0.184557,0.11648 -6.095571,3.48014 -0.132723,0.0755 0.257585,-0.1641 0.387027,-0.24513 0.24797,-0.15522 0.472559,-0.34662 0.724479,-0.49534 2.376932,-1.40323 4.770509,-2.77806 7.155762,-4.16709 -2.143212,1.23544 -4.281225,2.47994 -6.429636,3.70631 -0.121055,0.0691 0.225729,-0.16453 0.346598,-0.23395 2.388614,-1.37192 4.763387,-2.7691 7.180858,-4.08951 2.177664,-1.18942 -8.575781,4.99494 -6.461305,3.6965 6.258491,-3.84317 4.593855,-3.24811 7.54252,-4.25142 0.28957,-0.31616 0.714692,-0.3572 1.072218,-0.53572 0.378106,-0.1888 0.655556,-0.3952 1.069295,-0.5327 0.652656,-0.60561 1.572681,-0.52662 2.334345,-0.8633 0.899043,-0.20275 1.681483,-0.63064 2.490621,-1.04359 -16.706403,9.58115 0.48243,-0.27777 0.84938,-0.48338 0.2964,-0.16607 0.66417,-0.20475 0.97986,-0.30928 0.16553,-0.0548 0.32382,-0.12943 0.48573,-0.19415 0.1714,-0.0555 0.34279,-0.11103 0.51419,-0.16654 2.77499,-1.32245 7.45725,-4.14517 -4.385749,2.65123 0.108961,-0.0764 0.211939,-0.16205 0.326885,-0.22906 2.375914,-1.3851 4.745654,-2.78142 7.144424,-4.12655 0.25623,-0.14368 0.56905,-0.16169 0.82959,-0.29738 0.1478,-0.077 0.57468,-0.33774 0.43,-0.25504 -2.10039,1.2006 -4.19813,2.40584 -6.29719,3.60876 3.19603,-1.94504 6.40755,-3.88808 9.74637,-5.55958 0.945,-0.27937 1.73044,-0.87693 2.64283,-1.22234 0.61846,-0.2551 1.3027,-0.17717 1.94235,-0.29622 0.28902,-0.0538 0.56096,-0.17635 0.84379,-0.25657 0.28569,-0.11915 0.60539,-0.0813 0.89725,-0.16717 0.13201,-0.0388 0.49432,-0.24123 0.37472,-0.17319 -12.88772,7.33187 -7.76254,4.82247 -5.82179,3.15385 0,0 7.35604,-2.96731 7.35604,-2.96731 v 0 c -0.11386,0.0911 -0.23658,0.17206 -0.34156,0.27324 -0.10721,0.10334 -0.16414,0.26206 -0.29238,0.33775 -4.57055,2.6977 -5.06352,3.62304 -8.47052,4.36408 -0.90428,0.20653 -1.86066,0.21661 -2.70106,0.65665 -0.85703,0.44511 -1.73044,0.84749 -2.6058,1.25526 -0.47137,0.25654 -0.95449,0.48704 -1.42534,0.74464 10.99336,-6.42466 7.57107,-4.42189 5.22851,-3.00197 -2.41781,1.40154 -4.82709,2.81791 -7.25345,4.20461 -0.28746,0.16429 -0.60941,0.24862 -0.90854,0.38537 -0.1233,0.0564 -0.476729,0.25822 -0.359733,0.18974 6.922363,-4.05227 8.503743,-5.07484 6.101303,-3.5318 -2.96032,1.73386 -5.96394,3.86134 -9.245209,5.11989 -0.488884,0.17841 -0.993505,0.3298 -1.466781,0.54803 -0.14994,0.0691 -0.583507,0.30898 -0.440878,0.2258 3.675144,-2.1435 14.217128,-8.19361 -0.866122,0.47506 -0.819824,0.41338 -1.699805,0.66727 -2.569426,0.95443 -0.82209,0.19088 -1.554277,0.52308 -2.297785,0.91487 -0.707139,0.36881 -1.4161,0.73118 -2.134269,1.07667 -2.528946,1.38734 -0.470091,0.26137 6.088954,-3.53342 -2.418697,1.30698 -4.722657,2.82047 -7.15068,4.11004 -2.186395,1.16124 4.284697,-2.48125 6.425354,-3.7248 0.11903,-0.0692 -0.24029,0.13439 -0.360434,0.20158 -2.375445,1.3931 -4.75089,2.7862 -7.126335,4.1793 2.130218,-1.24411 4.25573,-2.49632 6.390653,-3.73234 0.12646,-0.0732 -0.249603,0.15326 -0.364538,0.2435 -0.760598,0.59714 0.0962,0.0519 -0.731906,0.5314 -7.308773,4.23237 -4.601337,3.1191 -7.537516,4.3041 -2.459305,1.37517 -1.601176,0.89836 6.08834,-3.57339 0.10858,-0.0631 -0.217569,0.12773 -0.314365,0.20778 -0.101444,0.0839 -0.184737,0.18758 -0.277108,0.28138 -0.110207,0.0625 -0.227383,0.11397 -0.330624,0.18737 -0.105635,0.0751 -0.195193,0.17058 -0.29279,0.25588 -0.710409,0.32887 -1.102572,0.98236 -1.705277,1.45513 -0.502481,0.6106 -1.167408,1.12086 -1.83688,1.53199 -23.84045,13.81879 4.401658,-2.59444 -1.17102,0.67983 -2.387584,1.40285 -4.830537,2.71501 -7.166038,4.20295 -0.225959,0.14396 18.627611,-10.82006 -0.853122,0.5051 21.447709,-12.4054 -16.554458,9.50321 4.707366,-2.81466 0.12809,-0.0742 -0.251286,0.15656 -0.376928,0.23485 -2.380708,1.40171 -4.84033,2.6773 -7.142123,4.20515 -2.046608,1.35846 8.499591,-4.92965 6.37531,-3.69617 -2.388804,1.38707 -4.776417,2.77622 -7.168886,4.15696 -0.381211,0.22001 -0.792231,0.35302 -1.20995,0.48595 -0.911426,0.2296 -1.819926,0.50947 -2.64119,0.97573 2.145446,-1.25495 4.287184,-2.51626 6.436337,-3.76485 0.110304,-0.0641 -0.220507,0.13028 -0.319276,0.21102 -0.309512,0.25301 -0.606208,0.52452 -0.947555,0.74038 -0.115281,0.0729 -0.247327,0.1151 -0.37099,0.17265 -0.699096,0.50858 -1.303579,1.13739 -2.025026,1.61972 -1.164881,0.90786 -17.836277,10.34861 -1.689865,1.0018 0.110961,-0.0642 -0.217596,0.13567 -0.326392,0.2035 -2.962659,1.72493 -5.783967,3.6871 -8.960369,4.96739 -2.505091,1.35996 -1.081638,0.59193 6.087499,-3.56806 0.10958,-0.0636 -0.219789,0.12798 -0.318548,0.20734 -0.76033,0.61097 0.203642,-0.0202 -0.628811,0.46019 -2.377967,1.37224 -4.751305,2.75248 -7.126957,4.12872 17.15507,-9.96533 -0.934103,0.57732 -0.990034,0.61387 -2.079392,1.35909 8.617379,-4.94704 6.450656,-3.73201 -3.59723,2.01721 -14.657483,8.53151 -0.700548,0.33874 -0.713478,0.37872 -1.020144,1.11271 -1.600555,1.64459 -0.472694,0.23754 -0.247396,0.0983 -0.675116,0.41898 -0.520324,0.29264 -0.981136,0.46963 -1.221205,1.08876 -0.614318,0.68104 -1.378292,1.17704 -2.043891,1.7955 -0.426577,0.68272 -1.000212,1.20768 -1.5841,1.74672 -0.449021,0.80431 -0.603549,1.75786 -0.830815,2.64175 -0.2793,0.85776 -0.783122,1.64398 -0.857928,2.55621 -0.171042,1.04794 -0.500951,2.06052 -0.47726,3.13442 -0.146704,1.39576 -0.380974,2.77936 -0.76208,4.13211 0,0 -7.186207,3.37491 -7.186207,3.37491 z"
       inkscape:connector-curvature="0" />
    <path
       style="fill:#22002b;stroke-width:0.26458332"
       id="path250"
       d="m 46.762886,129.98908 c -0.441158,1.19478 -0.999315,2.28544 -1.961123,3.13245 -0.782428,0.54837 -1.58651,1.06239 -2.369674,1.61017 -0.571119,0.49032 -1.192843,0.93518 -1.605847,1.57315 -0.361743,0.71189 -0.690316,1.43798 -1.027263,2.16172 -0.356259,0.8103 -0.817277,1.56488 -1.182754,2.3719 -0.380412,0.81234 -0.921038,1.52999 -1.40018,2.28425 -0.477414,0.48459 -0.627793,1.18983 -1.00629,1.73099 -0.768985,1.09948 -2.075603,2.63521 -2.893946,3.62785 -0.610534,0.71776 -1.221065,1.43552 -1.831597,2.15328 0,0 -6.879688,2.91629 -6.879688,2.91629 v 0 c 0.596097,-0.70609 1.192193,-1.4122 1.788289,-2.1183 0.488856,-0.61002 2.063928,-2.54353 2.614701,-3.33153 0.307599,-0.44008 0.431678,-0.98001 0.685067,-1.44776 0.07237,-0.1336 0.163272,-0.25629 0.244906,-0.38444 0.558552,-0.65847 0.983459,-1.45662 1.447067,-2.17812 0.451213,-0.73284 0.680226,-1.59511 1.210821,-2.28993 0.257109,-0.76526 0.648065,-1.48255 1.007224,-2.20107 0.267795,-0.81377 0.770898,-1.40191 1.473676,-1.88612 0.671272,-0.69442 1.54731,-1.18485 2.383975,-1.65419 1.187974,-0.82407 1.567514,-1.32893 2.116429,-2.69568 0,0 7.186207,-3.37491 7.186207,-3.37491 z"
       inkscape:connector-curvature="0" />
  </g>
</svg>
